<?xml version="1.0" encoding="UTF-8" standalone="no"?><!DOCTYPE svg PUBLIC "-//W3C//DTD SVG 1.1//EN" "http://www.w3.org/Graphics/SVG/1.1/DTD/svg11.dtd"><svg width="100%" height="100%" viewBox="0 0 1326 1230" version="1.1" xmlns="http://www.w3.org/2000/svg" xmlns:xlink="http://www.w3.org/1999/xlink" xml:space="preserve" xmlns:serif="http://www.serif.com/" style="fill-rule:evenodd;clip-rule:evenodd;stroke-linecap:round;stroke-linejoin:round;stroke-miterlimit:100;"><g id="Logo-Light" serif:id="Logo Light"><g id="Line-Group" serif:id="Line Group"><path d="M100.671,340.267c0,-18.297 9.994,-35.132 26.056,-43.894c94.236,-51.406 416.55,-227.228 507.287,-276.725c14.925,-8.141 32.964,-8.141 47.888,-0c90.738,49.497 413.052,225.319 507.287,276.725c16.062,8.762 26.056,25.597 26.056,43.894" style="fill:#ebebeb;fill-opacity:0;stroke:#ff6900;stroke-width:27.08px;"/><path d="M190.246,813.267l974.639,0" style="fill:none;stroke:#ff6900;stroke-width:27.08px;"/><path d="M482.246,415.267l589.639,0" style="fill:none;stroke:#ff6900;stroke-width:27.08px;"/><path d="M1215.246,888.906c-0,18.297 -9.994,35.132 -26.056,43.894c-94.236,51.406 -416.55,227.228 -507.287,276.725c-14.925,8.141 -32.964,8.141 -47.888,0c-90.738,-49.497 -413.052,-225.319 -507.287,-276.725c-16.062,-8.762 -26.056,-25.597 -26.056,-43.894" style="fill:#ebebeb;fill-opacity:0;stroke:#ff6900;stroke-width:27.08px;"/><path d="M1215.246,791.267l0,97.639" style="fill:none;stroke:#ff6900;stroke-width:27.08px;"/><path d="M1215.246,346.267l0,113.639" style="fill:none;stroke:#ff6900;stroke-width:27.08px;"/><path d="M100.671,888.906l-0,-56.639" style="fill:none;stroke:#ff6900;stroke-width:27.08px;"/><path d="M100.671,711.906l-0,-56.639" style="fill:none;stroke:#ff6900;stroke-width:27.08px;"/><path d="M100.671,358.906l-0,-30.639" style="fill:none;stroke:#ff6900;stroke-width:27.08px;"/></g><path d="M99.875,805.878c91.375,-2.125 162.208,-101.292 163.625,-167.167c0,-34 -24.083,-69.417 -72.958,-69.417c-16.292,0 -36.833,2.833 -53.125,2.833l-4.958,0c-16.292,0 -25.5,-5.667 -25.5,-24.792l1.417,-14.167c8.5,-57.375 67.292,-138.833 101.292,-165.75c4.958,-3.542 11.333,-6.375 17,-6.375c6.375,0 11.333,2.833 13.458,10.625c1.417,6.375 2.125,14.875 2.125,24.792c0,46.75 -17.708,123.25 -59.5,125.375c-4.25,0 -6.375,4.25 -6.375,8.5c0,4.25 2.125,8.5 6.375,9.917c13.458,3.542 30.458,7.792 48.167,7.792c27.625,0 55.25,-10.625 70.125,-55.958c7.083,-21.958 12.042,-46.75 12.042,-70.833c0,-53.125 -24.083,-100.583 -94.208,-100.583c-94.917,0 -196.208,172.833 -196.208,242.25c0,39.667 34,65.875 66.583,65.875l2.833,0c12.042,0 37.542,-4.25 56.667,-4.25c14.167,0 25.5,2.125 27.625,9.208c0.708,2.833 0.708,5.667 0.708,8.5c0,34 -40.375,97.042 -79.333,99.875l-2.833,0c-24.083,0 -47.458,-16.292 -51.708,-36.125l-0.708,-7.792c0,-14.875 5.667,-30.458 14.875,-43.208c0.708,-1.417 1.417,-2.833 1.417,-4.25c0,-4.958 -4.958,-10.625 -9.917,-10.625c-1.417,0 -2.833,0 -3.542,0.708c-24.792,14.167 -45.333,58.792 -45.333,86.417l0.708,8.5c8.5,38.958 58.792,70.125 97.75,70.125l1.417,0Z" style="fill:#272727;fill-rule:nonzero;"/><path d="M339.292,768.336c74.375,0 115.458,-108.375 136,-156.542l1.417,-4.958c0,-2.833 -2.833,-4.958 -6.375,-7.083c-2.125,-0.708 -4.25,-1.417 -6.375,-1.417c-3.542,0 -6.375,0.708 -7.792,3.542c-13.458,30.458 -61.625,104.125 -87.125,104.125c-7.083,0 -9.917,-5.667 -9.917,-13.458l0.708,-15.583c4.25,-58.083 31.875,-123.958 50.292,-178.5l41.083,0c7.083,0 14.875,-17.708 14.875,-27.625c0,-4.25 -1.417,-7.083 -4.25,-7.083l-38.958,-1.417c7.792,-17.708 18.417,-34.708 21.25,-51l0.708,-2.833c0,-10.625 -28.333,-22.667 -48.167,-22.667c-9.208,0 -16.292,2.833 -19.125,9.208c-7.083,16.292 -16.292,38.25 -26.208,65.167c-17.708,-0.708 -34,-0.708 -48.167,-0.708c-7.083,0 -12.75,16.292 -12.75,26.208c0,4.25 1.417,7.792 4.25,7.792l43.917,0.708c-21.25,58.083 -49.583,155.833 -49.583,221.708l0,2.833c0,31.167 12.75,49.583 48.875,49.583l1.417,0Z" style="fill:#272727;fill-rule:nonzero;"/><path d="M529.125,772.586c36.125,0 60.917,-7.792 87.833,-34c34.708,-34 53.125,-83.583 72.958,-126.792l1.417,-4.25c0,-3.542 -2.833,-5.667 -5.667,-7.792c-2.125,-0.708 -4.958,-1.417 -7.083,-1.417c-2.833,0 -5.667,0.708 -7.083,3.542c-13.458,24.083 -36.833,63.042 -58.792,85.708c-17,17.708 -38.25,26.208 -58.083,26.208l-4.25,0c-26.917,-2.125 -48.167,-18.417 -48.167,-45.333c0,-5.667 1.417,-11.333 2.833,-17c7.792,7.083 18.417,9.917 29.75,9.917c21.958,0 47.458,-12.042 65.167,-34c14.167,-17.708 27.625,-45.333 27.625,-72.25l0,-7.792c-2.833,-26.208 -20.542,-53.125 -56.667,-53.833l-2.125,0c-56.667,0 -98.458,59.5 -116.875,109.792c-7.083,19.833 -11.333,42.5 -11.333,64.458c0,53.833 24.792,104.125 88.542,104.833Zm-3.542,-169.292l-5.667,-0.708c5.667,-17 27.625,-57.375 50.292,-57.375c4.25,0 7.792,1.417 11.333,3.542c2.833,2.125 4.25,4.958 4.25,8.5c0,15.583 -29.75,46.042 -60.208,46.042Z" style="fill:#272727;fill-rule:nonzero;"/><path d="M724.625,777.545c12.75,-0.708 14.875,-4.958 26.917,-12.75c45.333,-28.333 129.625,-182.042 133.167,-238l0,-4.25c0,-7.083 -1.417,-10.625 -9.917,-14.167c-12.75,-5.667 -34.708,-9.208 -41.792,-10.625l-0.708,0c-4.958,0 -9.917,4.25 -9.917,9.208l0.708,2.833c0.708,2.125 1.417,4.958 1.417,9.208c0,38.958 -43.208,148.75 -77.208,183.458c-5.667,5.667 -10.625,9.208 -14.167,9.208c-6.375,0 -10.625,-7.083 -11.333,-24.792l0,-9.917c0,-48.875 14.875,-101.292 33.292,-150.167l0.708,-3.542c0,-12.75 -27.625,-24.083 -47.458,-24.083c-9.917,0 -17.708,2.833 -19.833,9.917c-14.167,48.875 -28.333,116.167 -28.333,173.542c0,29.042 3.542,55.25 12.042,75.792c7.083,16.292 26.917,19.125 45.333,19.125l7.083,0Z" style="fill:#272727;fill-rule:nonzero;"/><path d="M975.375,773.295c41.083,0 79.333,-27.625 101.292,-65.167c2.125,-3.542 2.833,-6.375 2.833,-9.917c0,-9.917 -8.5,-15.583 -15.583,-15.583c-2.125,0 -4.25,0 -5.667,1.417c-18.417,18.417 -43.917,31.875 -64.458,31.875c-28.333,-0.708 -47.458,-23.375 -47.458,-48.875c0,-4.25 0.708,-9.208 2.125,-13.458c7.792,7.083 18.417,10.625 29.75,10.625c38.958,0 93.5,-46.042 93.5,-106.25c-2.125,-34.708 -16.292,-62.333 -60.208,-63.042c-82.167,0 -130.333,118.292 -130.333,177.792c0,65.875 41.792,97.75 94.208,100.583Zm-7.792,-168.583l-4.958,0c6.375,-17.708 28.333,-58.083 51.708,-58.083c7.083,0 15.583,4.25 15.583,12.042c0,17 -30.458,46.042 -62.333,46.042Z" style="fill:#272727;fill-rule:nonzero;"/><path d="M1134.042,431.17c3.542,0 7.083,-0.708 8.5,-2.125c12.75,-13.458 32.583,-58.792 32.583,-72.25l0,-0.708c0,-9.208 -12.75,-10.625 -20.542,-12.75l-3.542,0c-7.792,0 -17,2.125 -19.125,9.917c-4.958,22.667 -12.75,46.75 -17.708,66.583l0,1.417c0,5.667 7.792,9.208 16.292,9.917l3.542,0Z" style="fill:#272727;fill-rule:nonzero;"/><path d="M1163.083,774.003c29.75,-0.708 67.292,-13.458 89.958,-36.125c41.792,-41.792 58.083,-89.25 72.25,-126.083l0.708,-3.542c0,-6.375 -7.083,-9.917 -13.458,-9.917c-2.833,0 -4.958,0.708 -6.375,3.542c-3.542,6.375 -47.458,82.875 -73.667,101.292c6.375,-22.667 5.667,-28.333 6.375,-51.708l-0.708,-43.208c0,-33.292 3.542,-65.875 26.208,-99.875c1.417,-1.417 1.417,-2.833 1.417,-4.958c0,-3.542 -3.542,-6.375 -7.792,-7.083l-54.542,-10.625l-2.125,0c-2.125,0 -3.542,0.708 -6.375,2.125c-22.667,15.583 -29.042,58.083 -29.042,87.125c0,20.542 1.417,33.292 1.417,54.542c0,36.125 -1.417,82.167 -17,82.167c-6.375,-0.708 -9.208,-5.667 -9.208,-12.042c0.708,-14.167 7.792,-26.917 14.167,-31.167c1.417,-1.417 2.125,-2.833 2.125,-4.25c0,-9.208 -19.125,-21.958 -37.542,-21.958c-7.792,0 -14.875,2.125 -19.833,8.5c-13.458,19.833 -20.542,40.375 -20.542,57.375c0,36.125 31.167,65.875 81.458,65.875l2.125,0Z" style="fill:#272727;fill-rule:nonzero;"/><g transform="matrix(0.753452,-0,0,0.465116,378.051036,-784.381619)"><g transform="matrix(1.327225,0,0,2.15,-38.612565,-2274.7)"><rect x="118" y="1961.75" width="378.833" height="100" style="fill:#fff;fill-opacity:0;"/></g><g transform="matrix(1.327225,0,0,2.15,-38.612565,-2274.7)"><g transform="matrix(83.333333,0,0,83.333333,118,2048.416667)"><path d="M0.524,-0.53l0.046,0l0,-0.17l-0.526,0l-0,0.042l0.1,0l0,0.616l-0.1,0l0,0.042l0.526,-0l0,-0.17l-0.046,0l0,0.127l-0.332,0l0,-0.294l0.314,0l0,-0.043l-0.314,0l0,-0.277l0.332,0l0,0.127Z" style="fill:#272727;fill-rule:nonzero;"/></g><g transform="matrix(83.333333,0,0,83.333333,170.5,2048.416667)"><path d="M0.485,-0.506l0.048,0l0,-0.048c0,-0.099 -0.047,-0.146 -0.146,-0.146l-0.17,0c-0.099,0 -0.146,0.047 -0.146,0.146l0,0.055c0,0.088 0.045,0.116 0.132,0.138l0.207,0.052c0.064,0.016 0.084,0.04 0.084,0.095l0,0.072c0,0.069 -0.03,0.1 -0.1,0.1l-0.178,0c-0.069,0 -0.1,-0.031 -0.1,-0.1l0,-0.063l-0.048,0l0,0.059c0,0.099 0.047,0.146 0.146,0.146l0.182,-0c0.099,-0 0.146,-0.047 0.146,-0.146l0,-0.071c0,-0.088 -0.045,-0.116 -0.132,-0.138l-0.207,-0.052c-0.064,-0.016 -0.084,-0.04 -0.084,-0.095l0,-0.056c0,-0.07 0.031,-0.1 0.1,-0.1l0.166,0c0.07,0 0.1,0.03 0.1,0.1l0,0.052Z" style="fill:#272727;fill-rule:nonzero;"/></g><g transform="matrix(83.333333,0,0,83.333333,220.666667,2048.416667)"><path d="M0.607,-0.7l-0.563,0l-0,0.18l0.046,0l0,-0.136l0.212,0l0,0.614l-0.108,0l0,0.042l0.264,-0l0,-0.042l-0.108,0l0,-0.614l0.211,0l0,0.136l0.046,0l0,-0.18Z" style="fill:#272727;fill-rule:nonzero;"/></g><g transform="matrix(83.333333,0,0,83.333333,297.083333,2048.416667)"><path d="M0.519,-0l0,-0.188l-0.046,0l0,0.144l-0.353,-0l0,-0.111c0,-0.041 0.029,-0.06 0.096,-0.101l0.166,-0.097c0.099,-0.058 0.131,-0.077 0.131,-0.143l0,-0.058c0,-0.099 -0.047,-0.146 -0.146,-0.146l-0.14,0c-0.099,0 -0.146,0.047 -0.146,0.146l0,0.055l0.048,0l0,-0.057c0,-0.07 0.031,-0.1 0.1,-0.1l0.136,0c0.07,0 0.1,0.03 0.1,0.1l0,0.06c0,0.042 -0.025,0.057 -0.083,0.092l-0.166,0.097c-0.113,0.067 -0.144,0.089 -0.144,0.152l0,0.155l0.447,-0Z" style="fill:#272727;fill-rule:nonzero;"/></g><g transform="matrix(83.333333,0,0,83.333333,346,2048.416667)"><path d="M0.404,-0c0.099,-0 0.146,-0.047 0.146,-0.146l0,-0.408c0,-0.099 -0.047,-0.146 -0.146,-0.146l-0.18,0c-0.099,0 -0.146,0.047 -0.146,0.146l0,0.408c0,0.099 0.047,0.146 0.146,0.146l0.18,-0Zm-0.278,-0.556c0,-0.07 0.031,-0.1 0.1,-0.1l0.176,0c0.07,0 0.1,0.03 0.1,0.1l0,0.412c0,0.069 -0.03,0.1 -0.1,0.1l-0.176,0c-0.069,0 -0.1,-0.031 -0.1,-0.1l0,-0.412Z" style="fill:#272727;fill-rule:nonzero;"/></g><g transform="matrix(83.333333,0,0,83.333333,398.333333,2048.416667)"><path d="M0.519,-0l0,-0.188l-0.046,0l0,0.144l-0.353,-0l0,-0.111c0,-0.041 0.029,-0.06 0.096,-0.101l0.166,-0.097c0.099,-0.058 0.131,-0.077 0.131,-0.143l0,-0.058c0,-0.099 -0.047,-0.146 -0.146,-0.146l-0.14,0c-0.099,0 -0.146,0.047 -0.146,0.146l0,0.055l0.048,0l0,-0.057c0,-0.07 0.031,-0.1 0.1,-0.1l0.136,0c0.07,0 0.1,0.03 0.1,0.1l0,0.06c0,0.042 -0.025,0.057 -0.083,0.092l-0.166,0.097c-0.113,0.067 -0.144,0.089 -0.144,0.152l0,0.155l0.447,-0Z" style="fill:#272727;fill-rule:nonzero;"/></g><g transform="matrix(83.333333,0,0,83.333333,445.583333,2048.416667)"><path d="M0.467,-0.195l0.106,0l0,-0.044l-0.106,0l0,-0.461l-0.058,0l-0.375,0.466l0.005,0.039l0.38,0l0,0.153l-0.108,0l0,0.042l0.256,-0l0,-0.042l-0.1,0l0,-0.153Zm-0.048,-0.044l-0.327,0l0.327,-0.406l0,0.406Z" style="fill:#272727;fill-rule:nonzero;"/></g></g></g><path d="M425.333,882.321l0,-10.125l-34.125,0l0,10.125l11.125,0l-14.625,62l-19.25,-72.125l-11,0l-19.25,72.125l-14.625,-62l11.125,0l0,-10.125l-34.5,0l0,10.125l10.875,0l20.375,77.375l13.25,0l18.25,-67.875l18.25,67.875l12.75,0l20.5,-77.375l10.875,0Z" style="fill:#272727;fill-rule:nonzero;"/><path d="M481.083,959.696c11.875,0 17.5,-5.625 17.5,-17.5l0,-52.5c0,-11.875 -5.625,-17.5 -17.5,-17.5l-29,0c-11.875,0 -17.5,5.625 -17.5,17.5l0,52.5c0,11.875 5.625,17.5 17.5,17.5l29,0Zm-34.5,-69.625c0,-5 1.875,-6.875 6.875,-6.875l26.25,0c5,0 6.875,1.875 6.875,6.875l0,51.75c0,5 -1.875,6.875 -6.875,6.875l-26.25,0c-5,0 -6.875,-1.875 -6.875,-6.875l0,-51.75Z" style="fill:#272727;fill-rule:nonzero;"/><path d="M592.708,949.571l-11.5,0l-13.125,-26.5c10.5,-0.625 15.5,-6.375 15.5,-17.5l0,-15.875c0,-11.875 -5.625,-17.5 -17.5,-17.5l-54.375,0l0,10.125l12,0l0,67.25l-12,0l0,10.125l36.875,0l0,-10.125l-12.875,0l0,-25.75l19.875,0l17.625,35.875l19.5,0l0,-10.125Zm-57,-36.5l0,-30l29.125,0c4.875,0 6.75,1.875 6.75,6.75l0,16.375c0,5 -1.875,6.875 -6.75,6.875l-29.125,0Z" style="fill:#272727;fill-rule:nonzero;"/><path d="M685.333,949.571l-10.875,0l-25.375,-42.25l21.5,-25l11.25,0l0,-10.125l-33.875,0l0,10.125l8.75,0l-32,39l0,-39l13,0l0,-10.125l-36.875,0l0,10.125l12,0l0,67.25l-12,0l0,10.125l37.375,0l0,-10.125l-13.5,0l0,-13.75l16.625,-19.375l26,43.25l18,0l0,-10.125Z" style="fill:#272727;fill-rule:nonzero;"/><path d="M741.458,898.321l11.875,0l0,-8.625c0,-11.875 -5.625,-17.5 -17.5,-17.5l-25.25,0c-11.875,0 -17.5,5.625 -17.5,17.5l0,10.625c0,12.5 7.875,15.625 18,17.875l24.125,5.375c5.25,1.125 7.5,2.875 7.5,8.25l0,10.5c0,4.875 -1.875,6.75 -6.875,6.75l-24.375,0c-4.875,0 -6.75,-1.875 -6.75,-6.75l0,-9.75l-11.875,0l0,9.625c0,11.875 5.625,17.5 17.5,17.5l26.875,0c11.875,0 17.5,-5.625 17.5,-17.5l0,-12c0,-12.5 -7.875,-15.625 -18,-17.875l-24.25,-5.5c-5.125,-1.125 -7.375,-2.75 -7.375,-8.125l0,-9.125c0,-4.875 1.875,-6.75 6.875,-6.75l22.75,0c4.875,0 6.75,1.875 6.75,6.75l0,8.75Z" style="fill:#272727;fill-rule:nonzero;"/><path d="M841.458,882.321l12,0l0,-10.125l-35.875,0l0,10.125l11.875,0l0,26.5l-39.375,0l0,-26.5l11.875,0l0,-10.125l-35.875,0l0,10.125l12,0l0,67.25l-12,0l0,10.125l35.875,0l0,-10.125l-11.875,0l0,-29.875l39.375,0l0,29.875l-11.875,0l0,10.125l35.875,0l0,-10.125l-12,0l0,-67.25Z" style="fill:#272727;fill-rule:nonzero;"/><path d="M913.208,959.696c11.875,0 17.5,-5.625 17.5,-17.5l0,-52.5c0,-11.875 -5.625,-17.5 -17.5,-17.5l-29,0c-11.875,0 -17.5,5.625 -17.5,17.5l0,52.5c0,11.875 5.625,17.5 17.5,17.5l29,0Zm-34.5,-69.625c0,-5 1.875,-6.875 6.875,-6.875l26.25,0c5,0 6.875,1.875 6.875,6.875l0,51.75c0,5 -1.875,6.875 -6.875,6.875l-26.25,0c-5,0 -6.875,-1.875 -6.875,-6.875l0,-51.75Z" style="fill:#272727;fill-rule:nonzero;"/><path d="M943.833,872.196l0,10.125l12,0l0,67.25l-12,0l0,10.125l38,0l0,-10.125l-14,0l0,-24l30.375,0c11.875,0 17.5,-5.625 17.5,-17.5l0,-18.375c0,-11.875 -5.625,-17.5 -17.5,-17.5l-54.375,0Zm59.875,35.75c0,5 -1.875,6.875 -6.75,6.875l-29.125,0l0,-31.75l29.125,0c4.875,0 6.75,1.875 6.75,6.75l0,18.125Z" style="fill:#272727;fill-rule:nonzero;"/></g></svg>